<svg id="Layer_1" data-name="Layer 1" xmlns="http://www.w3.org/2000/svg" xmlns:xlink="http://www.w3.org/1999/xlink" viewBox="0 0 1263.26 950.29"><defs><style>.cls-1,.cls-18,.cls-35,.cls-47,.cls-7,.cls-82,.cls-83{fill:none;}.cls-2{clip-path:url(#clip-path);}.cls-11,.cls-3{fill:#fff;}.cls-4{clip-path:url(#clip-path-2);}.cls-5{fill:#f0f4f5;}.cls-6{clip-path:url(#clip-path-3);}.cls-7{stroke:#1a1a1a;}.cls-18,.cls-7{stroke-width:7.22px;}.cls-8{clip-path:url(#clip-path-4);}.cls-48,.cls-9{fill:#005eb8;}.cls-10{clip-path:url(#clip-path-5);}.cls-11{opacity:0.8;}.cls-12{clip-path:url(#clip-path-6);}.cls-13{fill:#212b32;}.cls-14{clip-path:url(#clip-path-7);}.cls-15{fill:#425563;}.cls-16{clip-path:url(#clip-path-8);}.cls-17{clip-path:url(#clip-path-9);}.cls-18{stroke:#f0f4f5;}.cls-19{clip-path:url(#clip-path-10);}.cls-20{clip-path:url(#clip-path-11);}.cls-21{clip-path:url(#clip-path-13);}.cls-22{clip-path:url(#clip-path-14);}.cls-23{clip-path:url(#clip-path-15);}.cls-24{fill:#004020;}.cls-24,.cls-27{fill-rule:evenodd;}.cls-25{clip-path:url(#clip-path-18);}.cls-26{clip-path:url(#clip-path-19);}.cls-27{fill:#007f3b;}.cls-28{font-size:25.25px;fill:#1a1a1a;font-family:Arial-BoldMT, Arial;font-weight:700;}.cls-29{clip-path:url(#clip-path-21);}.cls-30{clip-path:url(#clip-path-22);}.cls-31{clip-path:url(#clip-path-23);}.cls-32{clip-path:url(#clip-path-24);}.cls-33{clip-path:url(#clip-path-25);}.cls-34{clip-path:url(#clip-path-26);}.cls-35{stroke:#212b32;}.cls-35,.cls-82{stroke-width:3.61px;}.cls-36{clip-path:url(#clip-path-27);}.cls-37{clip-path:url(#clip-path-28);}.cls-38{clip-path:url(#clip-path-31);}.cls-39{clip-path:url(#clip-path-32);}.cls-40{clip-path:url(#clip-path-35);}.cls-41{clip-path:url(#clip-path-36);}.cls-42{clip-path:url(#clip-path-38);}.cls-43{clip-path:url(#clip-path-39);}.cls-44{clip-path:url(#clip-path-40);}.cls-45{clip-path:url(#clip-path-41);}.cls-46{clip-path:url(#clip-path-42);}.cls-47{stroke:#425563;stroke-width:1.8px;}.cls-48{font-size:18.03px;font-family:ArialMT, Arial;}.cls-49{clip-path:url(#clip-path-44);}.cls-50{clip-path:url(#clip-path-46);}.cls-51{clip-path:url(#clip-path-47);}.cls-52{clip-path:url(#clip-path-50);}.cls-53{clip-path:url(#clip-path-51);}.cls-54{clip-path:url(#clip-path-54);}.cls-55{clip-path:url(#clip-path-55);}.cls-56{clip-path:url(#clip-path-57);}.cls-57{clip-path:url(#clip-path-58);}.cls-58{clip-path:url(#clip-path-59);}.cls-59{clip-path:url(#clip-path-62);}.cls-60{clip-path:url(#clip-path-63);}.cls-61{clip-path:url(#clip-path-64);}.cls-62{clip-path:url(#clip-path-65);}.cls-63{clip-path:url(#clip-path-66);}.cls-64{clip-path:url(#clip-path-67);}.cls-65{clip-path:url(#clip-path-68);}.cls-66{clip-path:url(#clip-path-69);}.cls-67{fill:#cecece;}.cls-68{clip-path:url(#clip-path-72);}.cls-69{clip-path:url(#clip-path-73);}.cls-70{clip-path:url(#clip-path-75);}.cls-71{clip-path:url(#clip-path-76);}.cls-72{clip-path:url(#clip-path-77);}.cls-73{clip-path:url(#clip-path-78);}.cls-74{clip-path:url(#clip-path-79);}.cls-75{clip-path:url(#clip-path-80);}.cls-76{clip-path:url(#clip-path-81);}.cls-77{clip-path:url(#clip-path-82);}.cls-78{clip-path:url(#clip-path-85);}.cls-79{clip-path:url(#clip-path-86);}.cls-80{clip-path:url(#clip-path-89);}.cls-81{clip-path:url(#clip-path-90);}.cls-82,.cls-83{stroke:#000;}.cls-83{stroke-width:3.25px;}.cls-84{clip-path:url(#clip-path-92);}.cls-85{clip-path:url(#clip-path-94);}.cls-86{clip-path:url(#clip-path-95);}.cls-87{clip-path:url(#clip-path-96);}.cls-88{clip-path:url(#clip-path-97);}.cls-89{clip-path:url(#clip-path-98);}.cls-90{clip-path:url(#clip-path-101);}.cls-91{clip-path:url(#clip-path-102);}.cls-92{clip-path:url(#clip-path-105);}.cls-93{clip-path:url(#clip-path-106);}</style><clipPath id="clip-path"><rect class="cls-1" y="0.04" width="1263" height="949.5"/></clipPath><clipPath id="clip-path-2"><rect class="cls-1" x="0.26" y="0.04" width="1262.74" height="949.5"/></clipPath><clipPath id="clip-path-3"><rect class="cls-1" x="76.11" y="127.16" width="296" height="295.86"/></clipPath><clipPath id="clip-path-4"><rect class="cls-1" x="79.39" y="130.62" width="289.1" height="31.46"/></clipPath><clipPath id="clip-path-5"><rect class="cls-1" x="101.94" y="139.13" width="37.87" height="14.43"/></clipPath><clipPath id="clip-path-6"><rect class="cls-1" x="101.94" y="183.43" width="210.28" height="17.13"/></clipPath><clipPath id="clip-path-7"><rect class="cls-1" x="101.94" y="229.42" width="210.28" height="14.43"/></clipPath><clipPath id="clip-path-8"><rect class="cls-1" x="101.94" y="251.06" width="105.14" height="14.43"/></clipPath><clipPath id="clip-path-9"><rect class="cls-1" x="101.94" y="279.92" width="14.43" height="51.85"/></clipPath><clipPath id="clip-path-10"><rect class="cls-1" x="118.63" y="287.8" width="193.6" height="14.43"/></clipPath><clipPath id="clip-path-11"><rect class="cls-1" x="118.63" y="309.45" width="88.45" height="14.43"/></clipPath><clipPath id="clip-path-13"><rect class="cls-1" y="0.04" width="1263" height="950.25"/></clipPath><clipPath id="clip-path-14"><rect class="cls-1" x="101.94" y="366.19" width="98.7" height="28.85"/></clipPath><clipPath id="clip-path-15"><path class="cls-1" d="M101.94,389.28V372a5.82,5.82,0,0,1,1.69-4.09,5.9,5.9,0,0,1,1.87-1.25,5.81,5.81,0,0,1,2.21-.44h87.16a5.75,5.75,0,0,1,5.33,3.57,5.55,5.55,0,0,1,.44,2.21v17.31a5.62,5.62,0,0,1-.44,2.21,5.74,5.74,0,0,1-1.25,1.87,5.64,5.64,0,0,1-1.87,1.25,5.77,5.77,0,0,1-2.21.44H107.71a5.81,5.81,0,0,1-2.21-.44,5.77,5.77,0,0,1-3.12-3.12A5.81,5.81,0,0,1,101.94,389.28Z"/></clipPath><clipPath id="clip-path-18"><rect class="cls-1" x="101.94" y="363.32" width="98.7" height="28.85"/></clipPath><clipPath id="clip-path-19"><path class="cls-1" d="M101.94,386.41V369.09a5.82,5.82,0,0,1,1.69-4.08,5.9,5.9,0,0,1,1.87-1.25,5.81,5.81,0,0,1,2.21-.44h87.16A5.77,5.77,0,0,1,199,365a5.68,5.68,0,0,1,1.25,1.88,5.54,5.54,0,0,1,.44,2.2v17.32a5.62,5.62,0,0,1-.44,2.21,5.74,5.74,0,0,1-1.25,1.87,5.64,5.64,0,0,1-1.87,1.25,5.77,5.77,0,0,1-2.21.44H107.71a5.81,5.81,0,0,1-2.21-.44,5.77,5.77,0,0,1-3.12-3.12A5.81,5.81,0,0,1,101.94,386.41Z"/></clipPath><clipPath id="clip-path-21"><rect class="cls-1" x="483.96" y="127.16" width="296" height="295.86"/></clipPath><clipPath id="clip-path-22"><rect class="cls-1" x="487.24" y="130.62" width="289.1" height="31.46"/></clipPath><clipPath id="clip-path-23"><rect class="cls-1" x="509.79" y="139.13" width="37.87" height="14.43"/></clipPath><clipPath id="clip-path-24"><rect class="cls-1" x="509.79" y="183.43" width="210.28" height="17.13"/></clipPath><clipPath id="clip-path-25"><rect class="cls-1" x="509.79" y="229.1" width="106.47" height="14.43"/></clipPath><clipPath id="clip-path-26"><rect class="cls-1" x="509.79" y="250.74" width="162.76" height="17.13"/></clipPath><clipPath id="clip-path-27"><rect class="cls-1" x="509.79" y="282.3" width="106.47" height="14.43"/></clipPath><clipPath id="clip-path-28"><rect class="cls-1" x="509.79" y="303.95" width="162.76" height="17.13"/></clipPath><clipPath id="clip-path-31"><rect class="cls-1" x="509.79" y="366.19" width="98.7" height="28.85"/></clipPath><clipPath id="clip-path-32"><path class="cls-1" d="M509.79,389.28V372a5.82,5.82,0,0,1,1.69-4.09,5.9,5.9,0,0,1,1.87-1.25,5.81,5.81,0,0,1,2.21-.44h87.16a5.75,5.75,0,0,1,5.33,3.57,5.55,5.55,0,0,1,.44,2.21v17.31a5.62,5.62,0,0,1-.44,2.21,5.74,5.74,0,0,1-1.25,1.87,5.64,5.64,0,0,1-1.87,1.25,5.77,5.77,0,0,1-2.21.44H515.56a5.81,5.81,0,0,1-2.21-.44,5.77,5.77,0,0,1-3.12-3.12A5.81,5.81,0,0,1,509.79,389.28Z"/></clipPath><clipPath id="clip-path-35"><rect class="cls-1" x="509.79" y="363.32" width="98.7" height="28.85"/></clipPath><clipPath id="clip-path-36"><path class="cls-1" d="M509.79,386.41V369.09a5.82,5.82,0,0,1,1.69-4.08,5.9,5.9,0,0,1,1.87-1.25,5.81,5.81,0,0,1,2.21-.44h87.16A5.77,5.77,0,0,1,606.8,365a5.68,5.68,0,0,1,1.25,1.88,5.54,5.54,0,0,1,.44,2.2v17.32a5.62,5.62,0,0,1-.44,2.21,5.74,5.74,0,0,1-1.25,1.87,5.64,5.64,0,0,1-1.87,1.25,5.77,5.77,0,0,1-2.21.44H515.56a5.81,5.81,0,0,1-2.21-.44,5.77,5.77,0,0,1-3.12-3.12A5.81,5.81,0,0,1,509.79,386.41Z"/></clipPath><clipPath id="clip-path-38"><rect class="cls-1" x="483.96" y="629.49" width="296" height="295.86"/></clipPath><clipPath id="clip-path-39"><rect class="cls-1" x="487.24" y="632.95" width="289.1" height="31.46"/></clipPath><clipPath id="clip-path-40"><rect class="cls-1" x="509.79" y="641.46" width="37.87" height="14.43"/></clipPath><clipPath id="clip-path-41"><rect class="cls-1" x="509.79" y="685.76" width="210.28" height="17.13"/></clipPath><clipPath id="clip-path-42"><rect class="cls-1" x="509.92" y="734.84" width="106.47" height="14.43"/></clipPath><clipPath id="clip-path-44"><rect class="cls-1" x="509.92" y="766.25" width="106.47" height="14.43"/></clipPath><clipPath id="clip-path-46"><rect class="cls-1" x="509.79" y="805.22" width="210.28" height="14.43"/></clipPath><clipPath id="clip-path-47"><rect class="cls-1" x="509.79" y="826.86" width="105.14" height="14.43"/></clipPath><clipPath id="clip-path-50"><rect class="cls-1" x="509.79" y="868.52" width="98.7" height="28.85"/></clipPath><clipPath id="clip-path-51"><path class="cls-1" d="M509.79,891.61V874.29a5.82,5.82,0,0,1,1.69-4.08,5.9,5.9,0,0,1,1.87-1.25,5.81,5.81,0,0,1,2.21-.44h87.16a5.77,5.77,0,0,1,4.08,1.69,5.68,5.68,0,0,1,1.25,1.88,5.54,5.54,0,0,1,.44,2.2v17.32a5.62,5.62,0,0,1-.44,2.21,5.74,5.74,0,0,1-1.25,1.87,5.64,5.64,0,0,1-1.87,1.25,5.77,5.77,0,0,1-2.21.44H515.56a5.81,5.81,0,0,1-2.21-.44,5.77,5.77,0,0,1-3.12-3.12A5.81,5.81,0,0,1,509.79,891.61Z"/></clipPath><clipPath id="clip-path-54"><rect class="cls-1" x="509.79" y="865.65" width="98.7" height="28.85"/></clipPath><clipPath id="clip-path-55"><path class="cls-1" d="M509.79,888.74V871.42a5.81,5.81,0,0,1,.44-2.21,5.77,5.77,0,0,1,3.12-3.12,5.81,5.81,0,0,1,2.21-.44h87.16a5.77,5.77,0,0,1,2.21.44,5.64,5.64,0,0,1,1.87,1.25,5.74,5.74,0,0,1,1.25,1.87,5.62,5.62,0,0,1,.44,2.21v17.32a5.54,5.54,0,0,1-.44,2.2,5.68,5.68,0,0,1-1.25,1.88,5.77,5.77,0,0,1-4.08,1.69H515.56a5.81,5.81,0,0,1-2.21-.44,5.9,5.9,0,0,1-1.87-1.25,5.82,5.82,0,0,1-1.69-4.08Z"/></clipPath><clipPath id="clip-path-57"><rect class="cls-1" x="891.81" y="629.49" width="296" height="295.86"/></clipPath><clipPath id="clip-path-58"><rect class="cls-1" x="895.09" y="632.95" width="289.1" height="31.46"/></clipPath><clipPath id="clip-path-59"><rect class="cls-1" x="917.64" y="641.46" width="37.87" height="14.43"/></clipPath><clipPath id="clip-path-62"><rect class="cls-1" x="917.64" y="865.65" width="98.7" height="28.85"/></clipPath><clipPath id="clip-path-63"><path class="cls-1" d="M917.64,888.74V871.42a5.81,5.81,0,0,1,.44-2.21,5.77,5.77,0,0,1,3.12-3.12,5.81,5.81,0,0,1,2.21-.44h87.16a5.77,5.77,0,0,1,2.21.44,5.64,5.64,0,0,1,1.87,1.25,5.74,5.74,0,0,1,1.25,1.87,5.62,5.62,0,0,1,.44,2.21v17.32a5.54,5.54,0,0,1-.44,2.2,5.68,5.68,0,0,1-1.25,1.88,5.77,5.77,0,0,1-4.08,1.69H923.41a5.81,5.81,0,0,1-2.21-.44,5.9,5.9,0,0,1-1.87-1.25,5.82,5.82,0,0,1-1.69-4.08Z"/></clipPath><clipPath id="clip-path-64"><rect class="cls-1" x="917.64" y="805.22" width="210.28" height="14.43"/></clipPath><clipPath id="clip-path-65"><rect class="cls-1" x="917.64" y="826.86" width="105.14" height="14.43"/></clipPath><clipPath id="clip-path-66"><rect class="cls-1" x="917.64" y="685.76" width="210.16" height="86.02"/></clipPath><clipPath id="clip-path-67"><rect class="cls-1" x="932.07" y="700.19" width="176.02" height="17.13"/></clipPath><clipPath id="clip-path-68"><rect class="cls-1" x="932.07" y="720.21" width="119.19" height="17.13"/></clipPath><clipPath id="clip-path-69"><rect class="cls-1" x="932.07" y="740.94" width="75.83" height="14.43"/></clipPath><clipPath id="clip-path-72"><rect class="cls-1" x="917.64" y="862.78" width="98.7" height="28.85"/></clipPath><clipPath id="clip-path-73"><path class="cls-1" d="M917.64,885.86V868.55a5.81,5.81,0,0,1,.44-2.21,5.77,5.77,0,0,1,3.12-3.12,5.81,5.81,0,0,1,2.21-.44h87.16a5.77,5.77,0,0,1,2.21.44,5.64,5.64,0,0,1,1.87,1.25,5.74,5.74,0,0,1,1.25,1.87,5.62,5.62,0,0,1,.44,2.21v17.31a5.55,5.55,0,0,1-.44,2.21,5.76,5.76,0,0,1-5.33,3.57H923.41a5.81,5.81,0,0,1-2.21-.44,5.9,5.9,0,0,1-1.87-1.25,5.82,5.82,0,0,1-1.69-4.09Z"/></clipPath><clipPath id="clip-path-75"><rect class="cls-1" x="76.11" y="629.54" width="296" height="295.86"/></clipPath><clipPath id="clip-path-76"><rect class="cls-1" x="79.39" y="633" width="289.1" height="31.46"/></clipPath><clipPath id="clip-path-77"><rect class="cls-1" x="101.94" y="641.52" width="37.87" height="14.43"/></clipPath><clipPath id="clip-path-78"><rect class="cls-1" x="101.94" y="685.82" width="210.28" height="17.13"/></clipPath><clipPath id="clip-path-79"><rect class="cls-1" x="101.94" y="731.48" width="106.47" height="14.43"/></clipPath><clipPath id="clip-path-80"><rect class="cls-1" x="101.94" y="753.12" width="162.76" height="17.13"/></clipPath><clipPath id="clip-path-81"><rect class="cls-1" x="101.94" y="784.68" width="106.47" height="14.43"/></clipPath><clipPath id="clip-path-82"><rect class="cls-1" x="101.94" y="806.33" width="162.76" height="17.13"/></clipPath><clipPath id="clip-path-85"><rect class="cls-1" x="101.94" y="868.58" width="98.7" height="28.85"/></clipPath><clipPath id="clip-path-86"><path class="cls-1" d="M101.94,891.66V874.35a5.77,5.77,0,0,1,.44-2.21,5.64,5.64,0,0,1,1.25-1.87A5.74,5.74,0,0,1,105.5,869a5.62,5.62,0,0,1,2.21-.44h87.16a5.77,5.77,0,0,1,5.77,5.77v17.31a5.77,5.77,0,0,1-3.56,5.33,5.77,5.77,0,0,1-2.21.44H107.71a5.81,5.81,0,0,1-2.21-.44,5.74,5.74,0,0,1-1.87-1.25,5.64,5.64,0,0,1-1.25-1.87A5.77,5.77,0,0,1,101.94,891.66Z"/></clipPath><clipPath id="clip-path-89"><rect class="cls-1" x="101.94" y="865.7" width="98.7" height="28.85"/></clipPath><clipPath id="clip-path-90"><path class="cls-1" d="M101.94,888.79V871.48a5.82,5.82,0,0,1,1.69-4.09,5.9,5.9,0,0,1,1.87-1.25,5.81,5.81,0,0,1,2.21-.44h87.16a5.75,5.75,0,0,1,5.33,3.57,5.55,5.55,0,0,1,.44,2.21v17.31a5.62,5.62,0,0,1-.44,2.21,5.74,5.74,0,0,1-1.25,1.87,5.64,5.64,0,0,1-1.87,1.25,5.77,5.77,0,0,1-2.21.44H107.71a5.81,5.81,0,0,1-2.21-.44,5.77,5.77,0,0,1-3.12-3.12A5.81,5.81,0,0,1,101.94,888.79Z"/></clipPath><clipPath id="clip-path-92"><rect class="cls-1" x="891.65" y="127.16" width="296" height="295.86"/></clipPath><clipPath id="clip-path-94"><rect class="cls-1" x="894.94" y="130.62" width="289.1" height="31.46"/></clipPath><clipPath id="clip-path-95"><rect class="cls-1" x="917.48" y="139.13" width="37.87" height="14.43"/></clipPath><clipPath id="clip-path-96"><rect class="cls-1" x="917.48" y="183.43" width="210.28" height="17.13"/></clipPath><clipPath id="clip-path-97"><rect class="cls-1" x="917.48" y="229.42" width="106.47" height="14.43"/></clipPath><clipPath id="clip-path-98"><rect class="cls-1" x="917.48" y="251.06" width="210.28" height="81.88"/></clipPath><clipPath id="clip-path-101"><rect class="cls-1" x="917.48" y="366.19" width="98.7" height="28.85"/></clipPath><clipPath id="clip-path-102"><path class="cls-1" d="M917.48,389.28V372a5.82,5.82,0,0,1,1.69-4.09,5.83,5.83,0,0,1,1.88-1.25,5.73,5.73,0,0,1,2.21-.44h87.15a5.78,5.78,0,0,1,5.78,5.78v17.31a5.72,5.72,0,0,1-1.7,4.08,5.64,5.64,0,0,1-1.87,1.25,5.77,5.77,0,0,1-2.21.44H923.26a5.73,5.73,0,0,1-2.21-.44,5.68,5.68,0,0,1-1.88-1.25,5.74,5.74,0,0,1-1.25-1.87A5.81,5.81,0,0,1,917.48,389.28Z"/></clipPath><clipPath id="clip-path-105"><rect class="cls-1" x="917.48" y="363.32" width="98.7" height="28.85"/></clipPath><clipPath id="clip-path-106"><path class="cls-1" d="M917.48,386.41V369.09a5.82,5.82,0,0,1,1.69-4.08,5.83,5.83,0,0,1,1.88-1.25,5.73,5.73,0,0,1,2.21-.44h87.15a5.77,5.77,0,0,1,4.08,1.69,5.77,5.77,0,0,1,1.7,4.08v17.32a5.72,5.72,0,0,1-1.7,4.08,5.64,5.64,0,0,1-1.87,1.25,5.77,5.77,0,0,1-2.21.44H923.26a5.73,5.73,0,0,1-2.21-.44,5.68,5.68,0,0,1-1.88-1.25,5.74,5.74,0,0,1-1.25-1.87A5.81,5.81,0,0,1,917.48,386.41Z"/></clipPath></defs><g class="cls-2"><rect class="cls-3" y="0.04" width="1263" height="950.25"/></g><g class="cls-4"><rect class="cls-5" x="0.26" width="1263" height="950.26"/></g><g class="cls-6"><rect class="cls-5" x="76.11" y="127.16" width="296" height="295.86"/><rect class="cls-7" x="76.11" y="127.16" width="296" height="295.86"/></g><g class="cls-8"><rect class="cls-9" x="79.39" y="130.62" width="289.1" height="31.46"/></g><g class="cls-10"><rect class="cls-11" x="101.94" y="139.13" width="37.87" height="14.43"/></g><g class="cls-12"><rect class="cls-13" x="101.94" y="183.43" width="210.28" height="17.13"/></g><g class="cls-14"><rect class="cls-15" x="101.94" y="229.42" width="210.28" height="14.43"/></g><g class="cls-16"><rect class="cls-15" x="101.94" y="251.06" width="105.14" height="14.43"/></g><g class="cls-17"><rect class="cls-9" x="101.94" y="279.92" width="14.43" height="51.85"/><rect class="cls-18" x="101.94" y="279.92" width="14.43" height="51.85"/></g><g class="cls-19"><rect class="cls-15" x="118.63" y="287.8" width="193.6" height="14.43"/></g><g class="cls-20"><rect class="cls-15" x="118.63" y="309.45" width="88.45" height="14.43"/></g><g class="cls-2"><g class="cls-21"><g class="cls-22"><g class="cls-23"><path class="cls-24" d="M107.71,366.19h87.16a5.43,5.43,0,0,1,1.13.12,5.82,5.82,0,0,1,1.08.32,6.43,6.43,0,0,1,1,.54,6.58,6.58,0,0,1,.87.71,5.53,5.53,0,0,1,.72.88,5.31,5.31,0,0,1,.53,1,5.18,5.18,0,0,1,.33,1.08,5.35,5.35,0,0,1,.11,1.13v17.31a5.25,5.25,0,0,1-.11,1.12,5.09,5.09,0,0,1-.33,1.09,5.23,5.23,0,0,1-.53,1,5.53,5.53,0,0,1-.72.88,5.94,5.94,0,0,1-.87.72,6.38,6.38,0,0,1-1,.53,6.74,6.74,0,0,1-1.08.33,6.18,6.18,0,0,1-1.13.11H107.71a6,6,0,0,1-1.12-.11,6.85,6.85,0,0,1-1.09-.33,5.87,5.87,0,0,1-1-.53,5.71,5.71,0,0,1-1.6-1.6,5.23,5.23,0,0,1-.53-1,5.09,5.09,0,0,1-.33-1.09,6,6,0,0,1-.11-1.12V372a6.1,6.1,0,0,1,.11-1.13,5.18,5.18,0,0,1,.33-1.08,5.31,5.31,0,0,1,.53-1,5.53,5.53,0,0,1,.72-.88,6.07,6.07,0,0,1,.88-.71,5.3,5.3,0,0,1,2.08-.86A5.26,5.26,0,0,1,107.71,366.19Z"/></g></g></g></g><g class="cls-2"><g class="cls-21"><g class="cls-25"><g class="cls-26"><path class="cls-27" d="M107.71,363.32h87.16a6.18,6.18,0,0,1,1.13.11,6.74,6.74,0,0,1,1.08.33,6.43,6.43,0,0,1,1,.54,6.58,6.58,0,0,1,.87.71,5.53,5.53,0,0,1,.72.88,5.31,5.31,0,0,1,.53,1,5.18,5.18,0,0,1,.33,1.08,5.32,5.32,0,0,1,.11,1.12v17.32a5.75,5.75,0,0,1-1,3.2,5.53,5.53,0,0,1-.72.88,6.65,6.65,0,0,1-.87.72,6.38,6.38,0,0,1-1,.53,6.74,6.74,0,0,1-1.08.33,6.18,6.18,0,0,1-1.13.11H107.71a6,6,0,0,1-1.12-.11,6.85,6.85,0,0,1-1.09-.33,5.87,5.87,0,0,1-1-.53,6.14,6.14,0,0,1-.88-.72,5.53,5.53,0,0,1-.72-.88,5.73,5.73,0,0,1-.86-2.08,6,6,0,0,1-.11-1.12V369.09a6.07,6.07,0,0,1,.11-1.12,5.18,5.18,0,0,1,.33-1.08,5.31,5.31,0,0,1,.53-1,5.53,5.53,0,0,1,.72-.88,6.07,6.07,0,0,1,.88-.71,5.91,5.91,0,0,1,1-.54,6.85,6.85,0,0,1,1.09-.33A6,6,0,0,1,107.71,363.32Z"/></g></g></g></g><g class="cls-2"><text class="cls-28" transform="translate(76.11 44.1)">Start Page</text><text class="cls-28" transform="translate(483.96 44.1)">What is your name?</text></g><g class="cls-29"><rect class="cls-5" x="483.96" y="127.16" width="296" height="295.86"/><rect class="cls-7" x="483.96" y="127.16" width="296" height="295.86"/></g><g class="cls-30"><rect class="cls-9" x="487.24" y="130.62" width="289.1" height="31.46"/></g><g class="cls-31"><rect class="cls-11" x="509.79" y="139.13" width="37.87" height="14.43"/></g><g class="cls-32"><rect class="cls-13" x="509.79" y="183.43" width="210.28" height="17.13"/></g><g class="cls-33"><rect class="cls-15" x="509.79" y="229.1" width="106.47" height="14.43"/></g><g class="cls-34"><rect class="cls-3" x="509.79" y="250.74" width="162.76" height="17.13"/><rect class="cls-35" x="509.79" y="250.74" width="162.76" height="17.13"/></g><g class="cls-36"><rect class="cls-15" x="509.79" y="282.3" width="106.47" height="14.43"/></g><g class="cls-37"><rect class="cls-3" x="509.79" y="303.95" width="162.76" height="17.13"/><rect class="cls-35" x="509.79" y="303.95" width="162.76" height="17.13"/></g><g class="cls-2"><g class="cls-21"><g class="cls-38"><g class="cls-39"><path class="cls-24" d="M515.56,366.19h87.16a5.43,5.43,0,0,1,1.13.12,5.82,5.82,0,0,1,1.08.32,6.43,6.43,0,0,1,1,.54,6.58,6.58,0,0,1,.87.71,5.53,5.53,0,0,1,.72.88,5.31,5.31,0,0,1,.53,1,5.18,5.18,0,0,1,.33,1.08,5.35,5.35,0,0,1,.11,1.13v17.31a5.25,5.25,0,0,1-.11,1.12,5.09,5.09,0,0,1-.33,1.09,5.23,5.23,0,0,1-.53,1,5.53,5.53,0,0,1-.72.88,5.94,5.94,0,0,1-.87.72,6.38,6.38,0,0,1-1,.53,6.74,6.74,0,0,1-1.08.33,6.18,6.18,0,0,1-1.13.11H515.56a6,6,0,0,1-1.12-.11,6.85,6.85,0,0,1-1.09-.33,5.87,5.87,0,0,1-1-.53,5.71,5.71,0,0,1-1.6-1.6,5.23,5.23,0,0,1-.53-1,5.09,5.09,0,0,1-.33-1.09,6,6,0,0,1-.11-1.12V372a6.1,6.1,0,0,1,.11-1.13,5.18,5.18,0,0,1,.33-1.08,5.31,5.31,0,0,1,.53-1,5.53,5.53,0,0,1,.72-.88,6.07,6.07,0,0,1,.88-.71,5.3,5.3,0,0,1,2.08-.86A5.26,5.26,0,0,1,515.56,366.19Z"/></g></g></g></g><g class="cls-2"><g class="cls-21"><g class="cls-40"><g class="cls-41"><path class="cls-27" d="M515.56,363.32h87.16a6.18,6.18,0,0,1,1.13.11,6.74,6.74,0,0,1,1.08.33,6.43,6.43,0,0,1,1,.54,6.58,6.58,0,0,1,.87.71,5.53,5.53,0,0,1,.72.88,5.31,5.31,0,0,1,.53,1,5.18,5.18,0,0,1,.33,1.08,5.32,5.32,0,0,1,.11,1.12v17.32a5.75,5.75,0,0,1-1,3.2,5.53,5.53,0,0,1-.72.88,6.65,6.65,0,0,1-.87.72,6.38,6.38,0,0,1-1,.53,6.74,6.74,0,0,1-1.08.33,6.18,6.18,0,0,1-1.13.11H515.56a6,6,0,0,1-1.12-.11,6.85,6.85,0,0,1-1.09-.33,5.87,5.87,0,0,1-1-.53,6.14,6.14,0,0,1-.88-.72,5.53,5.53,0,0,1-.72-.88,5.73,5.73,0,0,1-.86-2.08,6,6,0,0,1-.11-1.12V369.09a6.07,6.07,0,0,1,.11-1.12,5.18,5.18,0,0,1,.33-1.08,5.31,5.31,0,0,1,.53-1,5.53,5.53,0,0,1,.72-.88,6.07,6.07,0,0,1,.88-.71,5.91,5.91,0,0,1,1-.54,6.85,6.85,0,0,1,1.09-.33A6,6,0,0,1,515.56,363.32Z"/></g></g></g></g><g class="cls-2"><text class="cls-28" transform="translate(891.81 44.1)">What is your address?</text></g><g class="cls-42"><rect class="cls-5" x="483.96" y="629.49" width="296" height="295.86"/><rect class="cls-7" x="483.96" y="629.49" width="296" height="295.86"/></g><g class="cls-43"><rect class="cls-9" x="487.24" y="632.95" width="289.1" height="31.46"/></g><g class="cls-44"><rect class="cls-11" x="509.79" y="641.46" width="37.87" height="14.43"/></g><g class="cls-45"><rect class="cls-13" x="509.79" y="685.76" width="210.28" height="17.13"/></g><g class="cls-46"><rect class="cls-15" x="509.92" y="734.84" width="106.47" height="14.43"/></g><g class="cls-2"><line class="cls-47" x1="511.36" y1="757.56" x2="718.63" y2="757.56"/><rect class="cls-9" x="659.51" y="751.14" width="59.19" height="0.9"/><text class="cls-48" transform="translate(659.5 749.79)">change</text></g><g class="cls-49"><rect class="cls-15" x="509.92" y="766.25" width="106.47" height="14.43"/></g><g class="cls-2"><line class="cls-47" x1="511.36" y1="788.97" x2="718.63" y2="788.97"/><rect class="cls-9" x="659.51" y="782.55" width="59.19" height="0.9"/><text class="cls-48" transform="translate(659.5 781.2)">change</text></g><g class="cls-50"><rect class="cls-15" x="509.79" y="805.22" width="210.28" height="14.43"/></g><g class="cls-51"><rect class="cls-15" x="509.79" y="826.86" width="105.14" height="14.43"/></g><g class="cls-2"><g class="cls-21"><g class="cls-52"><g class="cls-53"><path class="cls-24" d="M515.56,868.52h87.16a6.18,6.18,0,0,1,1.13.11,6.74,6.74,0,0,1,1.08.33,6.43,6.43,0,0,1,1,.54,6.58,6.58,0,0,1,.87.71,5.53,5.53,0,0,1,.72.88,5.31,5.31,0,0,1,.53,1,5.18,5.18,0,0,1,.33,1.08,5.32,5.32,0,0,1,.11,1.12v17.32a5.75,5.75,0,0,1-1,3.2,5.53,5.53,0,0,1-.72.88,5.94,5.94,0,0,1-.87.72,6.38,6.38,0,0,1-1,.53,6.74,6.74,0,0,1-1.08.33,6.18,6.18,0,0,1-1.13.11H515.56a6,6,0,0,1-1.12-.11,6.85,6.85,0,0,1-1.09-.33,5.87,5.87,0,0,1-1-.53,5.71,5.71,0,0,1-1.6-1.6,5.73,5.73,0,0,1-.86-2.08,6,6,0,0,1-.11-1.12V874.29a6.07,6.07,0,0,1,.11-1.12,5.18,5.18,0,0,1,.33-1.08,5.31,5.31,0,0,1,.53-1,5.53,5.53,0,0,1,.72-.88,6.07,6.07,0,0,1,.88-.71,5.91,5.91,0,0,1,1-.54,6.85,6.85,0,0,1,1.09-.33A6,6,0,0,1,515.56,868.52Z"/></g></g></g></g><g class="cls-2"><g class="cls-21"><g class="cls-54"><g class="cls-55"><path class="cls-27" d="M515.56,865.65h87.16a6.18,6.18,0,0,1,1.13.11,6.74,6.74,0,0,1,1.08.33,6.38,6.38,0,0,1,1,.53,6.65,6.65,0,0,1,.87.72,5.53,5.53,0,0,1,.72.88,5.77,5.77,0,0,1,1,3.2v17.32a5.32,5.32,0,0,1-.11,1.12,5.18,5.18,0,0,1-.33,1.08,5.31,5.31,0,0,1-.53,1,5.53,5.53,0,0,1-.72.88,6.58,6.58,0,0,1-.87.71,6.43,6.43,0,0,1-1,.54,6.74,6.74,0,0,1-1.08.33,6.18,6.18,0,0,1-1.13.11H515.56a6,6,0,0,1-1.12-.11,6.85,6.85,0,0,1-1.09-.33,5.91,5.91,0,0,1-1-.54,6.07,6.07,0,0,1-.88-.71,5.53,5.53,0,0,1-.72-.88,5.31,5.31,0,0,1-.53-1,5.18,5.18,0,0,1-.33-1.08,6.07,6.07,0,0,1-.11-1.12V871.42a6,6,0,0,1,.11-1.12,5.73,5.73,0,0,1,.86-2.08,5.53,5.53,0,0,1,.72-.88,6.14,6.14,0,0,1,.88-.72,5.87,5.87,0,0,1,1-.53,6.85,6.85,0,0,1,1.09-.33A6,6,0,0,1,515.56,865.65Z"/></g></g></g></g><g class="cls-2"><text class="cls-28" transform="translate(483.96 546.48)">Check your answers</text></g><g class="cls-56"><rect class="cls-5" x="891.81" y="629.49" width="296" height="295.86"/><rect class="cls-7" x="891.81" y="629.49" width="296" height="295.86"/></g><g class="cls-57"><rect class="cls-9" x="895.09" y="632.95" width="289.1" height="31.46"/></g><g class="cls-58"><rect class="cls-11" x="917.64" y="641.46" width="37.87" height="14.43"/></g><g class="cls-2"><g class="cls-21"><g class="cls-59"><g class="cls-60"><path class="cls-24" d="M923.41,865.65h87.16a6.18,6.18,0,0,1,1.13.11,6.74,6.74,0,0,1,1.08.33,6.38,6.38,0,0,1,1,.53,6.65,6.65,0,0,1,.87.72,5.53,5.53,0,0,1,.72.88,5.77,5.77,0,0,1,1,3.2v17.32a5.32,5.32,0,0,1-.11,1.12,5.18,5.18,0,0,1-.33,1.08,5.31,5.31,0,0,1-.53,1,5.53,5.53,0,0,1-.72.88,6.58,6.58,0,0,1-.87.71,6.43,6.43,0,0,1-1,.54,6.74,6.74,0,0,1-1.08.33,6.18,6.18,0,0,1-1.13.11H923.41a6,6,0,0,1-1.12-.11,6.55,6.55,0,0,1-1.09-.33,5.91,5.91,0,0,1-1-.54,6.07,6.07,0,0,1-.88-.71,5.53,5.53,0,0,1-.72-.88,5.31,5.31,0,0,1-.53-1,5.18,5.18,0,0,1-.33-1.08,6.07,6.07,0,0,1-.11-1.12V871.42a6,6,0,0,1,.11-1.12,5.73,5.73,0,0,1,.86-2.08,5.53,5.53,0,0,1,.72-.88,6.14,6.14,0,0,1,.88-.72,5.87,5.87,0,0,1,1-.53,6.55,6.55,0,0,1,1.09-.33A6,6,0,0,1,923.41,865.65Z"/></g></g></g></g><g class="cls-61"><rect class="cls-15" x="917.64" y="805.22" width="210.28" height="14.43"/></g><g class="cls-62"><rect class="cls-15" x="917.64" y="826.86" width="105.14" height="14.43"/></g><g class="cls-63"><rect class="cls-3" x="917.64" y="685.76" width="210.16" height="86.02"/><rect class="cls-35" x="917.64" y="685.76" width="210.16" height="86.02"/></g><g class="cls-64"><rect class="cls-13" x="932.07" y="700.19" width="176.02" height="17.13"/></g><g class="cls-65"><rect class="cls-13" x="932.07" y="720.21" width="119.19" height="17.13"/></g><g class="cls-66"><rect class="cls-67" x="932.07" y="740.94" width="75.83" height="14.43"/></g><g class="cls-2"><g class="cls-21"><g class="cls-68"><g class="cls-69"><path class="cls-27" d="M923.41,862.78h87.16a6.18,6.18,0,0,1,1.13.11,6.74,6.74,0,0,1,1.08.33,6.38,6.38,0,0,1,1,.53,5.94,5.94,0,0,1,.87.72,5.53,5.53,0,0,1,.72.88,5.23,5.23,0,0,1,.53,1,5.09,5.09,0,0,1,.33,1.09,5.25,5.25,0,0,1,.11,1.12v17.31a5.35,5.35,0,0,1-.11,1.13,5.18,5.18,0,0,1-.33,1.08,5.31,5.31,0,0,1-.53,1,5.53,5.53,0,0,1-.72.88,6.58,6.58,0,0,1-.87.71,6.43,6.43,0,0,1-1,.54,5.82,5.82,0,0,1-1.08.32,5.43,5.43,0,0,1-1.13.12H923.41a5.26,5.26,0,0,1-1.12-.12,5.7,5.7,0,0,1-1.09-.32,5.91,5.91,0,0,1-1-.54,6.07,6.07,0,0,1-.88-.71,5.53,5.53,0,0,1-.72-.88,5.31,5.31,0,0,1-.53-1,5.18,5.18,0,0,1-.33-1.08,6.1,6.1,0,0,1-.11-1.13V868.55a6,6,0,0,1,.11-1.12,5.09,5.09,0,0,1,.33-1.09,5.23,5.23,0,0,1,.53-1,5.71,5.71,0,0,1,1.6-1.6,5.87,5.87,0,0,1,1-.53,6.55,6.55,0,0,1,1.09-.33A6,6,0,0,1,923.41,862.78Z"/></g></g></g></g><g class="cls-2"><text class="cls-28" transform="translate(891.81 546.48)">Confirmation</text></g><g class="cls-70"><rect class="cls-5" x="76.11" y="629.54" width="296" height="295.86"/><rect class="cls-7" x="76.11" y="629.54" width="296" height="295.86"/></g><g class="cls-71"><rect class="cls-9" x="79.39" y="633" width="289.1" height="31.46"/></g><g class="cls-72"><rect class="cls-11" x="101.94" y="641.52" width="37.87" height="14.43"/></g><g class="cls-73"><rect class="cls-13" x="101.94" y="685.82" width="210.28" height="17.13"/></g><g class="cls-74"><rect class="cls-15" x="101.94" y="731.48" width="106.47" height="14.43"/></g><g class="cls-75"><rect class="cls-3" x="101.94" y="753.12" width="162.76" height="17.13"/><rect class="cls-35" x="101.94" y="753.12" width="162.76" height="17.13"/></g><g class="cls-76"><rect class="cls-15" x="101.94" y="784.68" width="106.47" height="14.43"/></g><g class="cls-77"><rect class="cls-3" x="101.94" y="806.33" width="162.76" height="17.13"/><rect class="cls-35" x="101.94" y="806.33" width="162.76" height="17.13"/></g><g class="cls-2"><g class="cls-21"><g class="cls-78"><g class="cls-79"><path class="cls-24" d="M107.71,868.58h87.16a5.41,5.41,0,0,1,1.13.11,5.18,5.18,0,0,1,1.08.33,5.64,5.64,0,0,1,1,.53,5.94,5.94,0,0,1,.87.72,5.46,5.46,0,0,1,.72.87,5.64,5.64,0,0,1,.53,1,5.18,5.18,0,0,1,.33,1.08,5.35,5.35,0,0,1,.11,1.13v17.31a5.41,5.41,0,0,1-.11,1.13,5.18,5.18,0,0,1-.33,1.08,5.64,5.64,0,0,1-.53,1,6,6,0,0,1-1.59,1.59,5.64,5.64,0,0,1-1,.53,5.18,5.18,0,0,1-1.08.33,6.18,6.18,0,0,1-1.13.11H107.71a6,6,0,0,1-1.12-.11,5.73,5.73,0,0,1-2.08-.86,5.53,5.53,0,0,1-.88-.72,5.94,5.94,0,0,1-.72-.87,5.64,5.64,0,0,1-.53-1,5.18,5.18,0,0,1-.33-1.08,6.18,6.18,0,0,1-.11-1.13V874.35a6.1,6.1,0,0,1,.11-1.13,5.18,5.18,0,0,1,.33-1.08,5.64,5.64,0,0,1,.53-1,5.46,5.46,0,0,1,.72-.87,5.53,5.53,0,0,1,.88-.72,5.77,5.77,0,0,1,3.2-1Z"/></g></g></g></g><g class="cls-2"><g class="cls-21"><g class="cls-80"><g class="cls-81"><path class="cls-27" d="M107.71,865.7h87.16a5.43,5.43,0,0,1,1.13.12,5.82,5.82,0,0,1,1.08.32,6.43,6.43,0,0,1,1,.54,5.94,5.94,0,0,1,.87.72,5,5,0,0,1,.72.87,5.31,5.31,0,0,1,.53,1,5.18,5.18,0,0,1,.33,1.08,5.35,5.35,0,0,1,.11,1.13v17.31a5.25,5.25,0,0,1-.11,1.12,5.09,5.09,0,0,1-.33,1.09,5.23,5.23,0,0,1-.53,1,5.53,5.53,0,0,1-.72.88,5.94,5.94,0,0,1-.87.72,5.64,5.64,0,0,1-1,.53,5.85,5.85,0,0,1-1.08.33,6.18,6.18,0,0,1-1.13.11H107.71a5.78,5.78,0,0,1-2.21-.44,5.23,5.23,0,0,1-1-.53,5.71,5.71,0,0,1-1.6-1.6,5.23,5.23,0,0,1-.53-1,5.09,5.09,0,0,1-.33-1.09,6,6,0,0,1-.11-1.12V871.48a6.1,6.1,0,0,1,.11-1.13,5.18,5.18,0,0,1,.33-1.08,5.31,5.31,0,0,1,.53-1,5,5,0,0,1,.72-.87,5.53,5.53,0,0,1,.88-.72,5.3,5.3,0,0,1,2.08-.86A5.26,5.26,0,0,1,107.71,865.7Z"/></g></g></g></g><g class="cls-2"><line class="cls-82" x1="373.55" y1="275.09" x2="470.84" y2="275.09"/><path class="cls-83" d="M465.59,275.09h14.76m-14.76-14.76,14.76,14.76-14.76,14.75"/><text class="cls-28" transform="translate(76.11 546.48)">What is your date of</text><text class="cls-28" transform="translate(317.47 546.48)"> </text><text class="cls-28" transform="translate(76.11 575.33)">birth?</text><polyline class="cls-82" points="373.55 777.47 428.03 777.47 428.03 777.42 470.84 777.42"/><path class="cls-83" d="M465.59,777.42h14.76m-14.76-14.76,14.76,14.76-14.76,14.75"/><line class="cls-82" x1="781.4" y1="777.42" x2="878.69" y2="777.42"/><path class="cls-83" d="M873.44,777.42H888.2m-14.76-14.76,14.76,14.76-14.76,14.75"/></g><g class="cls-84"><rect class="cls-5" x="891.65" y="127.16" width="296" height="295.86"/><rect class="cls-7" x="891.65" y="127.16" width="296" height="295.86"/></g><g class="cls-2"><line class="cls-82" x1="781.4" y1="275.09" x2="878.53" y2="275.09"/><path class="cls-83" d="M873.28,275.09H888m-14.76-14.76L888,275.09l-14.76,14.75"/></g><g class="cls-85"><rect class="cls-9" x="894.94" y="130.62" width="289.1" height="31.46"/></g><g class="cls-86"><rect class="cls-11" x="917.48" y="139.13" width="37.87" height="14.43"/></g><g class="cls-87"><rect class="cls-13" x="917.48" y="183.43" width="210.28" height="17.13"/></g><g class="cls-88"><rect class="cls-15" x="917.48" y="229.42" width="106.47" height="14.43"/></g><g class="cls-89"><rect class="cls-3" x="917.48" y="251.06" width="210.28" height="81.88"/><rect class="cls-35" x="917.48" y="251.06" width="210.28" height="81.88"/></g><g class="cls-2"><g class="cls-21"><g class="cls-90"><g class="cls-91"><path class="cls-24" d="M923.26,366.19h87.15a5.35,5.35,0,0,1,1.13.12,5.82,5.82,0,0,1,1.08.32,6.43,6.43,0,0,1,1,.54,5.64,5.64,0,0,1,1.59,1.59,6,6,0,0,1,.54,1,5.82,5.82,0,0,1,.32,1.08,5.35,5.35,0,0,1,.12,1.13v17.31a5.26,5.26,0,0,1-.12,1.12,5.7,5.7,0,0,1-.32,1.09,5.91,5.91,0,0,1-.54,1,5.53,5.53,0,0,1-.72.88,5,5,0,0,1-.87.72,6.38,6.38,0,0,1-1,.53,6.74,6.74,0,0,1-1.08.33,6.1,6.1,0,0,1-1.13.11H923.26a6.1,6.1,0,0,1-1.13-.11,6.74,6.74,0,0,1-1.08-.33,6,6,0,0,1-1-.53,5.53,5.53,0,0,1-.88-.72,6.07,6.07,0,0,1-.71-.88,5.27,5.27,0,0,1-.54-1,6.55,6.55,0,0,1-.33-1.09,6,6,0,0,1-.11-1.12V372a6.1,6.1,0,0,1,.11-1.13,6.74,6.74,0,0,1,.33-1.08,5.36,5.36,0,0,1,.54-1,5.32,5.32,0,0,1,1.59-1.59,6,6,0,0,1,1-.54,5.82,5.82,0,0,1,1.08-.32A5.35,5.35,0,0,1,923.26,366.19Z"/></g></g></g></g><g class="cls-2"><g class="cls-21"><g class="cls-92"><g class="cls-93"><path class="cls-27" d="M923.26,363.32h87.15a6.1,6.1,0,0,1,1.13.11,6.74,6.74,0,0,1,1.08.33,6.43,6.43,0,0,1,1,.54,5.64,5.64,0,0,1,1.59,1.59,6,6,0,0,1,.54,1,5.82,5.82,0,0,1,.32,1.08,5.33,5.33,0,0,1,.12,1.12v17.32a5.26,5.26,0,0,1-.12,1.12,5.3,5.3,0,0,1-.86,2.08,5.86,5.86,0,0,1-1.59,1.6,6.38,6.38,0,0,1-1,.53,6.74,6.74,0,0,1-1.08.33,6.1,6.1,0,0,1-1.13.11H923.26a6.1,6.1,0,0,1-1.13-.11,6.74,6.74,0,0,1-1.08-.33,6,6,0,0,1-1-.53,6.14,6.14,0,0,1-.88-.72,6.07,6.07,0,0,1-.71-.88,5.27,5.27,0,0,1-.54-1,6.85,6.85,0,0,1-.33-1.09,6,6,0,0,1-.11-1.12V369.09a6.07,6.07,0,0,1,.11-1.12,6.74,6.74,0,0,1,.33-1.08,5.36,5.36,0,0,1,.54-1,5.32,5.32,0,0,1,1.59-1.59,6,6,0,0,1,1-.54,6.74,6.74,0,0,1,1.08-.33A6.1,6.1,0,0,1,923.26,363.32Z"/></g></g></g></g><g class="cls-2"><polyline class="cls-82" points="1189.09 275.09 1241.77 275.09 1241.77 477.12 21.98 477.12 21.98 777.47 62.98 777.47"/><path class="cls-83" d="M57.74,777.47H72.5M57.74,762.71,72.5,777.47,57.74,792.22"/></g></svg>