<svg id="Layer_1" data-name="Layer 1" xmlns="http://www.w3.org/2000/svg" xmlns:xlink="http://www.w3.org/1999/xlink" viewBox="0 0 1263.22 228.25"><defs><style>.cls-1,.cls-18,.cls-34,.cls-46,.cls-7,.cls-81,.cls-82{fill:none;}.cls-2{clip-path:url(#clip-path);}.cls-11,.cls-3{fill:#fff;}.cls-4{clip-path:url(#clip-path-2);}.cls-5{fill:#f0f4f5;}.cls-6{clip-path:url(#clip-path-3);}.cls-7{stroke:#1a1a1a;}.cls-18,.cls-7{stroke-width:3.82px;}.cls-8{clip-path:url(#clip-path-4);}.cls-47,.cls-9{fill:#005eb8;}.cls-10{clip-path:url(#clip-path-5);}.cls-11{opacity:0.8;}.cls-12{clip-path:url(#clip-path-6);}.cls-13{fill:#212b32;}.cls-14{clip-path:url(#clip-path-7);}.cls-15{fill:#425563;}.cls-16{clip-path:url(#clip-path-8);}.cls-17{clip-path:url(#clip-path-9);}.cls-18{stroke:#f0f4f5;}.cls-19{clip-path:url(#clip-path-10);}.cls-20{clip-path:url(#clip-path-11);}.cls-21{clip-path:url(#clip-path-14);}.cls-22{clip-path:url(#clip-path-15);}.cls-23{fill:#004020;}.cls-23,.cls-26{fill-rule:evenodd;}.cls-24{clip-path:url(#clip-path-18);}.cls-25{clip-path:url(#clip-path-19);}.cls-26{fill:#007f3b;}.cls-27{font-size:13.37px;fill:#1a1a1a;font-family:Arial-BoldMT, Arial;font-weight:700;}.cls-28{clip-path:url(#clip-path-21);}.cls-29{clip-path:url(#clip-path-22);}.cls-30{clip-path:url(#clip-path-23);}.cls-31{clip-path:url(#clip-path-24);}.cls-32{clip-path:url(#clip-path-25);}.cls-33{clip-path:url(#clip-path-26);}.cls-34{stroke:#212b32;}.cls-34,.cls-81{stroke-width:1.91px;}.cls-35{clip-path:url(#clip-path-27);}.cls-36{clip-path:url(#clip-path-28);}.cls-37{clip-path:url(#clip-path-31);}.cls-38{clip-path:url(#clip-path-32);}.cls-39{clip-path:url(#clip-path-35);}.cls-40{clip-path:url(#clip-path-36);}.cls-41{clip-path:url(#clip-path-38);}.cls-42{clip-path:url(#clip-path-39);}.cls-43{clip-path:url(#clip-path-40);}.cls-44{clip-path:url(#clip-path-41);}.cls-45{clip-path:url(#clip-path-42);}.cls-46{stroke:#425563;stroke-width:0.95px;}.cls-47{font-size:9.55px;font-family:ArialMT, Arial;}.cls-48{clip-path:url(#clip-path-44);}.cls-49{clip-path:url(#clip-path-46);}.cls-50{clip-path:url(#clip-path-47);}.cls-51{clip-path:url(#clip-path-50);}.cls-52{clip-path:url(#clip-path-51);}.cls-53{clip-path:url(#clip-path-54);}.cls-54{clip-path:url(#clip-path-55);}.cls-55{clip-path:url(#clip-path-57);}.cls-56{clip-path:url(#clip-path-58);}.cls-57{clip-path:url(#clip-path-59);}.cls-58{clip-path:url(#clip-path-62);}.cls-59{clip-path:url(#clip-path-63);}.cls-60{clip-path:url(#clip-path-64);}.cls-61{clip-path:url(#clip-path-65);}.cls-62{clip-path:url(#clip-path-66);}.cls-63{clip-path:url(#clip-path-67);}.cls-64{clip-path:url(#clip-path-68);}.cls-65{clip-path:url(#clip-path-69);}.cls-66{fill:#cecece;}.cls-67{clip-path:url(#clip-path-72);}.cls-68{clip-path:url(#clip-path-73);}.cls-69{clip-path:url(#clip-path-75);}.cls-70{clip-path:url(#clip-path-76);}.cls-71{clip-path:url(#clip-path-77);}.cls-72{clip-path:url(#clip-path-78);}.cls-73{clip-path:url(#clip-path-79);}.cls-74{clip-path:url(#clip-path-80);}.cls-75{clip-path:url(#clip-path-81);}.cls-76{clip-path:url(#clip-path-82);}.cls-77{clip-path:url(#clip-path-85);}.cls-78{clip-path:url(#clip-path-86);}.cls-79{clip-path:url(#clip-path-89);}.cls-80{clip-path:url(#clip-path-90);}.cls-81,.cls-82{stroke:#000;}.cls-82{stroke-width:1.72px;}.cls-83{clip-path:url(#clip-path-92);}.cls-84{clip-path:url(#clip-path-93);}.cls-85{clip-path:url(#clip-path-94);}.cls-86{clip-path:url(#clip-path-95);}.cls-87{clip-path:url(#clip-path-96);}.cls-88{clip-path:url(#clip-path-97);}.cls-89{clip-path:url(#clip-path-100);}.cls-90{clip-path:url(#clip-path-101);}.cls-91{clip-path:url(#clip-path-104);}.cls-92{clip-path:url(#clip-path-105);}</style><clipPath id="clip-path"><rect class="cls-1" width="1263" height="228"/></clipPath><clipPath id="clip-path-2"><rect class="cls-1" x="0.23" y="0.25" width="1262.77" height="227.75"/></clipPath><clipPath id="clip-path-3"><rect class="cls-1" x="13.71" y="64.61" width="156.67" height="156.61"/></clipPath><clipPath id="clip-path-4"><rect class="cls-1" x="15.45" y="66.44" width="153.02" height="16.65"/></clipPath><clipPath id="clip-path-5"><rect class="cls-1" x="27.38" y="70.95" width="20.04" height="7.64"/></clipPath><clipPath id="clip-path-6"><rect class="cls-1" x="27.38" y="94.4" width="111.3" height="9.07"/></clipPath><clipPath id="clip-path-7"><rect class="cls-1" x="27.38" y="118.74" width="111.3" height="7.64"/></clipPath><clipPath id="clip-path-8"><rect class="cls-1" x="27.38" y="130.2" width="55.65" height="7.64"/></clipPath><clipPath id="clip-path-9"><rect class="cls-1" x="27.38" y="145.47" width="7.64" height="27.45"/></clipPath><clipPath id="clip-path-10"><rect class="cls-1" x="36.21" y="149.65" width="102.47" height="7.64"/></clipPath><clipPath id="clip-path-11"><rect class="cls-1" x="36.21" y="161.1" width="46.82" height="7.64"/></clipPath><clipPath id="clip-path-14"><rect class="cls-1" x="27.38" y="191.14" width="52.24" height="15.27"/></clipPath><clipPath id="clip-path-15"><path class="cls-1" d="M27.38,203.36V194.2a3.07,3.07,0,0,1,3.06-3.06H76.57a3,3,0,0,1,2.16.9,2.91,2.91,0,0,1,.9,2.16v9.16a3.07,3.07,0,0,1-3.06,3.06H30.44a2.91,2.91,0,0,1-2.16-.9A3,3,0,0,1,27.38,203.36Z"/></clipPath><clipPath id="clip-path-18"><rect class="cls-1" x="27.38" y="189.63" width="52.24" height="15.27"/></clipPath><clipPath id="clip-path-19"><path class="cls-1" d="M27.38,201.85v-9.17a3,3,0,0,1,.9-2.16,2.91,2.91,0,0,1,2.16-.89H76.57a3.06,3.06,0,0,1,3.06,3.05v9.17a3,3,0,0,1-.9,2.16,3,3,0,0,1-2.16.89H30.44a3.06,3.06,0,0,1-3.06-3.05Z"/></clipPath><clipPath id="clip-path-21"><rect class="cls-1" x="229.58" y="64.61" width="156.67" height="156.61"/></clipPath><clipPath id="clip-path-22"><rect class="cls-1" x="231.32" y="66.44" width="153.02" height="16.65"/></clipPath><clipPath id="clip-path-23"><rect class="cls-1" x="243.25" y="70.95" width="20.04" height="7.64"/></clipPath><clipPath id="clip-path-24"><rect class="cls-1" x="243.25" y="94.4" width="111.3" height="9.07"/></clipPath><clipPath id="clip-path-25"><rect class="cls-1" x="243.25" y="118.57" width="56.35" height="7.64"/></clipPath><clipPath id="clip-path-26"><rect class="cls-1" x="243.25" y="130.03" width="86.15" height="9.07"/></clipPath><clipPath id="clip-path-27"><rect class="cls-1" x="243.25" y="146.74" width="56.35" height="7.64"/></clipPath><clipPath id="clip-path-28"><rect class="cls-1" x="243.25" y="158.19" width="86.15" height="9.07"/></clipPath><clipPath id="clip-path-31"><rect class="cls-1" x="243.25" y="191.14" width="52.24" height="15.27"/></clipPath><clipPath id="clip-path-32"><path class="cls-1" d="M243.25,203.36V194.2a2.91,2.91,0,0,1,.9-2.16,3,3,0,0,1,2.16-.9h46.13a3.07,3.07,0,0,1,3.06,3.06v9.16a3,3,0,0,1-.9,2.16,2.91,2.91,0,0,1-2.16.9H246.31a3.07,3.07,0,0,1-3.06-3.06Z"/></clipPath><clipPath id="clip-path-35"><rect class="cls-1" x="243.25" y="189.63" width="52.24" height="15.27"/></clipPath><clipPath id="clip-path-36"><path class="cls-1" d="M243.25,201.85v-9.17a3.06,3.06,0,0,1,3.06-3.05h46.13a2.91,2.91,0,0,1,2.16.89,3,3,0,0,1,.9,2.16v9.17a3.06,3.06,0,0,1-3.06,3.05H246.31a3,3,0,0,1-2.16-.89A3,3,0,0,1,243.25,201.85Z"/></clipPath><clipPath id="clip-path-38"><rect class="cls-1" x="877.2" y="64.58" width="156.67" height="156.61"/></clipPath><clipPath id="clip-path-39"><rect class="cls-1" x="878.95" y="66.41" width="153.02" height="16.65"/></clipPath><clipPath id="clip-path-40"><rect class="cls-1" x="890.87" y="70.92" width="20.04" height="7.64"/></clipPath><clipPath id="clip-path-41"><rect class="cls-1" x="890.87" y="94.37" width="111.3" height="9.07"/></clipPath><clipPath id="clip-path-42"><rect class="cls-1" x="890.95" y="120.35" width="56.35" height="7.64"/></clipPath><clipPath id="clip-path-44"><rect class="cls-1" x="890.95" y="136.98" width="56.35" height="7.64"/></clipPath><clipPath id="clip-path-46"><rect class="cls-1" x="890.87" y="157.6" width="111.3" height="7.64"/></clipPath><clipPath id="clip-path-47"><rect class="cls-1" x="890.87" y="169.06" width="55.65" height="7.64"/></clipPath><clipPath id="clip-path-50"><rect class="cls-1" x="890.87" y="191.12" width="52.24" height="15.27"/></clipPath><clipPath id="clip-path-51"><path class="cls-1" d="M890.87,203.34v-9.17a3.06,3.06,0,0,1,3.06-3h46.13a3,3,0,0,1,2.16.89,3,3,0,0,1,.9,2.16v9.17a3,3,0,0,1-.9,2.16,3,3,0,0,1-2.16.89H893.93a3.06,3.06,0,0,1-3.06-3Z"/></clipPath><clipPath id="clip-path-54"><rect class="cls-1" x="890.87" y="189.6" width="52.24" height="15.27"/></clipPath><clipPath id="clip-path-55"><path class="cls-1" d="M890.87,201.82v-9.17a3,3,0,0,1,.9-2.16,2.91,2.91,0,0,1,2.16-.89h46.13a3.06,3.06,0,0,1,3.06,3.05v9.17a3,3,0,0,1-.9,2.16,3,3,0,0,1-2.16.89H893.93a3.06,3.06,0,0,1-3.06-3.05Z"/></clipPath><clipPath id="clip-path-57"><rect class="cls-1" x="1093.08" y="64.58" width="156.67" height="156.61"/></clipPath><clipPath id="clip-path-58"><rect class="cls-1" x="1094.82" y="66.41" width="153.02" height="16.65"/></clipPath><clipPath id="clip-path-59"><rect class="cls-1" x="1106.75" y="70.92" width="20.04" height="7.64"/></clipPath><clipPath id="clip-path-62"><rect class="cls-1" x="1106.75" y="189.6" width="52.24" height="15.27"/></clipPath><clipPath id="clip-path-63"><path class="cls-1" d="M1106.75,201.82v-9.17a3,3,0,0,1,.9-2.16,2.91,2.91,0,0,1,2.16-.89h46.13a3.06,3.06,0,0,1,3.06,3.05v9.17a3,3,0,0,1-.9,2.16,3,3,0,0,1-2.16.89h-46.13a3.06,3.06,0,0,1-3.06-3.05Z"/></clipPath><clipPath id="clip-path-64"><rect class="cls-1" x="1106.75" y="157.6" width="111.3" height="7.64"/></clipPath><clipPath id="clip-path-65"><rect class="cls-1" x="1106.75" y="169.06" width="55.65" height="7.64"/></clipPath><clipPath id="clip-path-66"><rect class="cls-1" x="1106.75" y="94.37" width="111.23" height="45.54"/></clipPath><clipPath id="clip-path-67"><rect class="cls-1" x="1114.39" y="102.01" width="93.16" height="9.07"/></clipPath><clipPath id="clip-path-68"><rect class="cls-1" x="1114.39" y="112.61" width="63.09" height="9.07"/></clipPath><clipPath id="clip-path-69"><rect class="cls-1" x="1114.39" y="123.58" width="40.13" height="7.64"/></clipPath><clipPath id="clip-path-72"><rect class="cls-1" x="1106.75" y="188.08" width="52.24" height="15.27"/></clipPath><clipPath id="clip-path-73"><path class="cls-1" d="M1106.75,200.3v-9.16a3.07,3.07,0,0,1,3.06-3.06h46.13a3,3,0,0,1,2.16.9,2.91,2.91,0,0,1,.9,2.16v9.16a3.07,3.07,0,0,1-3.06,3.06h-46.13a2.91,2.91,0,0,1-2.16-.9A3,3,0,0,1,1106.75,200.3Z"/></clipPath><clipPath id="clip-path-75"><rect class="cls-1" x="661.33" y="64.61" width="156.67" height="156.61"/></clipPath><clipPath id="clip-path-76"><rect class="cls-1" x="663.07" y="66.44" width="153.02" height="16.65"/></clipPath><clipPath id="clip-path-77"><rect class="cls-1" x="675" y="70.95" width="20.04" height="7.64"/></clipPath><clipPath id="clip-path-78"><rect class="cls-1" x="675" y="94.4" width="111.3" height="9.07"/></clipPath><clipPath id="clip-path-79"><rect class="cls-1" x="675" y="118.57" width="56.35" height="7.64"/></clipPath><clipPath id="clip-path-80"><rect class="cls-1" x="675" y="130.03" width="86.15" height="9.07"/></clipPath><clipPath id="clip-path-81"><rect class="cls-1" x="675" y="146.74" width="56.35" height="7.64"/></clipPath><clipPath id="clip-path-82"><rect class="cls-1" x="675" y="158.19" width="86.15" height="9.07"/></clipPath><clipPath id="clip-path-85"><rect class="cls-1" x="675" y="191.14" width="52.24" height="15.27"/></clipPath><clipPath id="clip-path-86"><path class="cls-1" d="M675,203.36V194.2a3.06,3.06,0,0,1,3.06-3.06h46.13a3,3,0,0,1,2.16.9,2.91,2.91,0,0,1,.89,2.16v9.16a3.06,3.06,0,0,1-3,3.06H678.06a3.06,3.06,0,0,1-3.06-3.06Z"/></clipPath><clipPath id="clip-path-89"><rect class="cls-1" x="675" y="189.63" width="52.24" height="15.27"/></clipPath><clipPath id="clip-path-90"><path class="cls-1" d="M675,201.85v-9.17a3,3,0,0,1,.89-2.16,2.94,2.94,0,0,1,2.17-.89h46.13a3,3,0,0,1,3,3.05v9.17a2.94,2.94,0,0,1-.89,2.16,3,3,0,0,1-2.16.89H678.06a3,3,0,0,1-3.06-3.05Z"/></clipPath><clipPath id="clip-path-92"><rect class="cls-1" x="445.37" y="64.61" width="156.67" height="156.61"/></clipPath><clipPath id="clip-path-93"><rect class="cls-1" x="447.11" y="66.44" width="153.02" height="16.65"/></clipPath><clipPath id="clip-path-94"><rect class="cls-1" x="459.04" y="70.95" width="20.04" height="7.64"/></clipPath><clipPath id="clip-path-95"><rect class="cls-1" x="459.04" y="94.4" width="111.3" height="9.07"/></clipPath><clipPath id="clip-path-96"><rect class="cls-1" x="459.04" y="118.74" width="56.35" height="7.64"/></clipPath><clipPath id="clip-path-97"><rect class="cls-1" x="459.04" y="130.2" width="111.3" height="43.34"/></clipPath><clipPath id="clip-path-100"><rect class="cls-1" x="459.04" y="191.14" width="52.24" height="15.27"/></clipPath><clipPath id="clip-path-101"><path class="cls-1" d="M459,203.36V194.2a2.91,2.91,0,0,1,.9-2.16,3,3,0,0,1,2.16-.9h46.13a3.07,3.07,0,0,1,3.06,3.06v9.16a3,3,0,0,1-.9,2.16,2.91,2.91,0,0,1-2.16.9H462.1a3.07,3.07,0,0,1-3.06-3.06Z"/></clipPath><clipPath id="clip-path-104"><rect class="cls-1" x="459.04" y="189.63" width="52.24" height="15.27"/></clipPath><clipPath id="clip-path-105"><path class="cls-1" d="M459,201.85v-9.17a3.06,3.06,0,0,1,3.06-3.05h46.13a2.91,2.91,0,0,1,2.16.89,3,3,0,0,1,.9,2.16v9.17a3.06,3.06,0,0,1-3.06,3.05H462.1a3,3,0,0,1-2.16-.89A3,3,0,0,1,459,201.85Z"/></clipPath></defs><g class="cls-2"><rect class="cls-3" width="1263" height="228"/></g><g class="cls-4"><rect class="cls-5" x="0.23" y="0.25" width="1263" height="228"/></g><g class="cls-6"><rect class="cls-5" x="13.71" y="64.61" width="156.67" height="156.61"/><rect class="cls-7" x="13.71" y="64.61" width="156.67" height="156.61"/></g><g class="cls-8"><rect class="cls-9" x="15.45" y="66.44" width="153.02" height="16.65"/></g><g class="cls-10"><rect class="cls-11" x="27.38" y="70.95" width="20.04" height="7.64"/></g><g class="cls-12"><rect class="cls-13" x="27.38" y="94.4" width="111.3" height="9.07"/></g><g class="cls-14"><rect class="cls-15" x="27.38" y="118.74" width="111.3" height="7.64"/></g><g class="cls-16"><rect class="cls-15" x="27.38" y="130.2" width="55.65" height="7.64"/></g><g class="cls-17"><rect class="cls-9" x="27.38" y="145.47" width="7.64" height="27.45"/><rect class="cls-18" x="27.38" y="145.47" width="7.64" height="27.45"/></g><g class="cls-19"><rect class="cls-15" x="36.21" y="149.65" width="102.47" height="7.64"/></g><g class="cls-20"><rect class="cls-15" x="36.21" y="161.1" width="46.82" height="7.64"/></g><g class="cls-2"><g class="cls-2"><g class="cls-21"><g class="cls-22"><path class="cls-23" d="M30.44,191.14H76.57a3.09,3.09,0,0,1,1.17.23,3.15,3.15,0,0,1,1,.67,2.78,2.78,0,0,1,.66,1,2.92,2.92,0,0,1,.24,1.17v9.16a2.92,2.92,0,0,1-.24,1.17,3,3,0,0,1-1.65,1.65,2.92,2.92,0,0,1-1.17.24H30.44a2.92,2.92,0,0,1-1.17-.24,2.78,2.78,0,0,1-1-.66,3,3,0,0,1-.66-1,2.92,2.92,0,0,1-.24-1.17V194.2a2.92,2.92,0,0,1,.24-1.17,2.78,2.78,0,0,1,.66-1,2.94,2.94,0,0,1,1-.67A3.09,3.09,0,0,1,30.44,191.14Z"/></g></g></g></g><g class="cls-2"><g class="cls-2"><g class="cls-24"><g class="cls-25"><path class="cls-26" d="M30.44,189.63H76.57a2.91,2.91,0,0,1,1.17.23,3.08,3.08,0,0,1,1.89,2.82v9.17a3.16,3.16,0,0,1-.9,2.16,3.3,3.3,0,0,1-1,.66,3.09,3.09,0,0,1-1.17.23H30.44a3,3,0,0,1-2.16-.89,3.16,3.16,0,0,1-.9-2.16v-9.17a3.11,3.11,0,0,1,.9-2.16,2.78,2.78,0,0,1,1-.66A2.91,2.91,0,0,1,30.44,189.63Z"/></g></g></g></g><g class="cls-2"><text class="cls-27" transform="translate(13.71 20.64)">Start Page</text><text class="cls-27" transform="translate(229.58 20.64)">What is your name?</text></g><g class="cls-28"><rect class="cls-5" x="229.58" y="64.61" width="156.67" height="156.61"/><rect class="cls-7" x="229.58" y="64.61" width="156.67" height="156.61"/></g><g class="cls-29"><rect class="cls-9" x="231.32" y="66.44" width="153.02" height="16.65"/></g><g class="cls-30"><rect class="cls-11" x="243.25" y="70.95" width="20.04" height="7.64"/></g><g class="cls-31"><rect class="cls-13" x="243.25" y="94.4" width="111.3" height="9.07"/></g><g class="cls-32"><rect class="cls-15" x="243.25" y="118.57" width="56.35" height="7.64"/></g><g class="cls-33"><rect class="cls-3" x="243.25" y="130.03" width="86.15" height="9.07"/><rect class="cls-34" x="243.25" y="130.03" width="86.15" height="9.07"/></g><g class="cls-35"><rect class="cls-15" x="243.25" y="146.74" width="56.35" height="7.64"/></g><g class="cls-36"><rect class="cls-3" x="243.25" y="158.19" width="86.15" height="9.07"/><rect class="cls-34" x="243.25" y="158.19" width="86.15" height="9.07"/></g><g class="cls-2"><g class="cls-2"><g class="cls-37"><g class="cls-38"><path class="cls-23" d="M246.31,191.14h46.13a3.09,3.09,0,0,1,1.17.23,3.16,3.16,0,0,1,1.66,1.66,3.09,3.09,0,0,1,.23,1.17v9.16a3.09,3.09,0,0,1-.23,1.17,3.15,3.15,0,0,1-.67,1,2.78,2.78,0,0,1-1,.66,2.92,2.92,0,0,1-1.17.24H246.31a3.06,3.06,0,0,1-2.82-1.89,2.92,2.92,0,0,1-.24-1.17V194.2a2.92,2.92,0,0,1,.24-1.17,2.78,2.78,0,0,1,.66-1,3,3,0,0,1,2.16-.9Z"/></g></g></g></g><g class="cls-2"><g class="cls-2"><g class="cls-39"><g class="cls-40"><path class="cls-26" d="M246.31,189.63h46.13a2.91,2.91,0,0,1,1.17.23,2.78,2.78,0,0,1,1,.66,3,3,0,0,1,.9,2.16v9.17a3.05,3.05,0,0,1-3.06,3.05H246.31a3.17,3.17,0,0,1-1.17-.23,3.3,3.3,0,0,1-1-.66,3.16,3.16,0,0,1-.9-2.16v-9.17a3.05,3.05,0,0,1,3.06-3.05Z"/></g></g></g></g><g class="cls-2"><text class="cls-27" transform="translate(445.45 20.64)">What is your address?</text></g><g class="cls-41"><rect class="cls-5" x="877.2" y="64.58" width="156.67" height="156.61"/><rect class="cls-7" x="877.2" y="64.58" width="156.67" height="156.61"/></g><g class="cls-42"><rect class="cls-9" x="878.95" y="66.41" width="153.02" height="16.65"/></g><g class="cls-43"><rect class="cls-11" x="890.87" y="70.92" width="20.04" height="7.64"/></g><g class="cls-44"><rect class="cls-13" x="890.87" y="94.37" width="111.3" height="9.07"/></g><g class="cls-45"><rect class="cls-15" x="890.95" y="120.35" width="56.35" height="7.64"/></g><g class="cls-2"><line class="cls-46" x1="891.71" y1="132.38" x2="1001.42" y2="132.38"/><rect class="cls-9" x="970.13" y="128.98" width="31.33" height="0.48"/><text class="cls-47" transform="translate(970.13 128.26)">change</text></g><g class="cls-48"><rect class="cls-15" x="890.95" y="136.98" width="56.35" height="7.64"/></g><g class="cls-2"><line class="cls-46" x1="891.71" y1="149.01" x2="1001.42" y2="149.01"/><rect class="cls-9" x="970.13" y="145.61" width="31.33" height="0.48"/><text class="cls-47" transform="translate(970.13 144.89)">change</text></g><g class="cls-49"><rect class="cls-15" x="890.87" y="157.6" width="111.3" height="7.64"/></g><g class="cls-50"><rect class="cls-15" x="890.87" y="169.06" width="55.65" height="7.64"/></g><g class="cls-2"><g class="cls-2"><g class="cls-51"><g class="cls-52"><path class="cls-23" d="M893.93,191.12h46.13a3.09,3.09,0,0,1,1.17.23,3.3,3.3,0,0,1,1,.66,3.11,3.11,0,0,1,.9,2.16v9.17a3.11,3.11,0,0,1-.9,2.16,3.12,3.12,0,0,1-1,.66,2.91,2.91,0,0,1-1.17.23H893.93a3,3,0,0,1-2.16-.89,3,3,0,0,1-.9-2.16v-9.17a3,3,0,0,1,.9-2.16,3,3,0,0,1,2.16-.89Z"/></g></g></g></g><g class="cls-2"><g class="cls-2"><g class="cls-53"><g class="cls-54"><path class="cls-26" d="M893.93,189.6h46.13a2.91,2.91,0,0,1,1.17.23,3.08,3.08,0,0,1,1.89,2.82v9.17a3.16,3.16,0,0,1-.9,2.16,3.3,3.3,0,0,1-1,.66,3.09,3.09,0,0,1-1.17.23H893.93a3.05,3.05,0,0,1-3.06-3.05v-9.17a3,3,0,0,1,.9-2.16,2.78,2.78,0,0,1,1-.66A2.91,2.91,0,0,1,893.93,189.6Z"/></g></g></g></g><g class="cls-2"><text class="cls-27" transform="translate(877.2 20.64)">Check your answers</text></g><g class="cls-55"><rect class="cls-5" x="1093.08" y="64.58" width="156.67" height="156.61"/><rect class="cls-7" x="1093.08" y="64.58" width="156.67" height="156.61"/></g><g class="cls-56"><rect class="cls-9" x="1094.82" y="66.41" width="153.02" height="16.65"/></g><g class="cls-57"><rect class="cls-11" x="1106.75" y="70.92" width="20.04" height="7.64"/></g><g class="cls-2"><g class="cls-2"><g class="cls-58"><g class="cls-59"><path class="cls-23" d="M1109.81,189.6h46.13a2.91,2.91,0,0,1,1.17.23,3.08,3.08,0,0,1,1.89,2.82v9.17a3.16,3.16,0,0,1-.9,2.16,3.3,3.3,0,0,1-1,.66,3.09,3.09,0,0,1-1.17.23h-46.13a3.05,3.05,0,0,1-3.06-3.05v-9.17a3,3,0,0,1,.9-2.16,2.78,2.78,0,0,1,1-.66A2.91,2.91,0,0,1,1109.81,189.6Z"/></g></g></g></g><g class="cls-60"><rect class="cls-15" x="1106.75" y="157.6" width="111.3" height="7.64"/></g><g class="cls-61"><rect class="cls-15" x="1106.75" y="169.06" width="55.65" height="7.64"/></g><g class="cls-62"><rect class="cls-3" x="1106.75" y="94.37" width="111.23" height="45.54"/><rect class="cls-34" x="1106.75" y="94.37" width="111.23" height="45.54"/></g><g class="cls-63"><rect class="cls-13" x="1114.39" y="102.01" width="93.16" height="9.07"/></g><g class="cls-64"><rect class="cls-13" x="1114.39" y="112.61" width="63.09" height="9.07"/></g><g class="cls-65"><rect class="cls-66" x="1114.39" y="123.58" width="40.13" height="7.64"/></g><g class="cls-2"><g class="cls-2"><g class="cls-67"><g class="cls-68"><path class="cls-26" d="M1109.81,188.08h46.13a3.09,3.09,0,0,1,1.17.23,3.15,3.15,0,0,1,1,.67,2.78,2.78,0,0,1,.66,1,2.92,2.92,0,0,1,.24,1.17v9.16a2.92,2.92,0,0,1-.24,1.17,3,3,0,0,1-1.65,1.65,2.92,2.92,0,0,1-1.17.24h-46.13a2.92,2.92,0,0,1-1.17-.24,2.78,2.78,0,0,1-1-.66,3.15,3.15,0,0,1-.67-1,3.09,3.09,0,0,1-.23-1.17v-9.16A3.09,3.09,0,0,1,1107,190a3.16,3.16,0,0,1,1.66-1.66A3.09,3.09,0,0,1,1109.81,188.08Z"/></g></g></g></g><g class="cls-2"><text class="cls-27" transform="translate(1093.08 20.64)">Confirmation</text></g><g class="cls-69"><rect class="cls-5" x="661.33" y="64.61" width="156.67" height="156.61"/><rect class="cls-7" x="661.33" y="64.61" width="156.67" height="156.61"/></g><g class="cls-70"><rect class="cls-9" x="663.07" y="66.44" width="153.02" height="16.65"/></g><g class="cls-71"><rect class="cls-11" x="675" y="70.95" width="20.04" height="7.64"/></g><g class="cls-72"><rect class="cls-13" x="675" y="94.4" width="111.3" height="9.07"/></g><g class="cls-73"><rect class="cls-15" x="675" y="118.57" width="56.35" height="7.64"/></g><g class="cls-74"><rect class="cls-3" x="675" y="130.03" width="86.15" height="9.07"/><rect class="cls-34" x="675" y="130.03" width="86.15" height="9.07"/></g><g class="cls-75"><rect class="cls-15" x="675" y="146.74" width="56.35" height="7.64"/></g><g class="cls-76"><rect class="cls-3" x="675" y="158.19" width="86.15" height="9.07"/><rect class="cls-34" x="675" y="158.19" width="86.15" height="9.07"/></g><g class="cls-2"><g class="cls-2"><g class="cls-77"><g class="cls-78"><path class="cls-23" d="M678.06,191.14h46.13a3,3,0,0,1,2.16.9,3,3,0,0,1,.89,2.16v9.16a2.91,2.91,0,0,1-.23,1.17,3.12,3.12,0,0,1-.66,1,3.11,3.11,0,0,1-2.16.9H678.06a3.16,3.16,0,0,1-2.17-.9,3.3,3.3,0,0,1-.66-1,3.09,3.09,0,0,1-.23-1.17V194.2a3.05,3.05,0,0,1,3.06-3.06Z"/></g></g></g></g><g class="cls-2"><g class="cls-2"><g class="cls-79"><g class="cls-80"><path class="cls-26" d="M678.06,189.63h46.13a3,3,0,0,1,2.16.89,3.12,3.12,0,0,1,.66,1,3,3,0,0,1,.23,1.17v9.17A2.89,2.89,0,0,1,727,203a3.06,3.06,0,0,1-.66,1,3.3,3.3,0,0,1-1,.66,3.17,3.17,0,0,1-1.17.23H678.06a3.09,3.09,0,0,1-1.17-.23,3,3,0,0,1-1.66-1.66,3.08,3.08,0,0,1-.23-1.16v-9.17a3.17,3.17,0,0,1,.23-1.17,3.3,3.3,0,0,1,.66-1,3.09,3.09,0,0,1,2.17-.89Z"/></g></g></g></g><g class="cls-2"><line class="cls-81" x1="171.14" y1="142.91" x2="222.64" y2="142.91"/><path class="cls-82" d="M219.86,142.91h7.81m-7.81-7.81,7.81,7.81-7.81,7.81"/><line class="cls-81" x1="387.01" y1="142.91" x2="438.42" y2="142.91"/><path class="cls-82" d="M435.65,142.91h7.81m-7.81-7.81,7.81,7.81-7.81,7.81"/><text class="cls-27" transform="translate(661.33 20.64)">What is your date of</text><text class="cls-27" transform="translate(789.08 20.64)"> </text><text class="cls-27" transform="translate(661.33 35.91)">birth?</text><polyline class="cls-81" points="818.77 142.92 847.6 142.92 847.6 142.89 870.26 142.89"/><path class="cls-82" d="M867.48,142.89h7.82m-7.82-7.81,7.82,7.81-7.82,7.81"/><line class="cls-81" x1="1034.64" y1="142.89" x2="1086.13" y2="142.89"/><path class="cls-82" d="M1083.36,142.89h7.81m-7.81-7.81,7.81,7.81-7.81,7.81"/></g><g class="cls-83"><rect class="cls-5" x="445.37" y="64.61" width="156.67" height="156.61"/><rect class="cls-7" x="445.37" y="64.61" width="156.67" height="156.61"/></g><g class="cls-84"><rect class="cls-9" x="447.11" y="66.44" width="153.02" height="16.65"/></g><g class="cls-85"><rect class="cls-11" x="459.04" y="70.95" width="20.04" height="7.64"/></g><g class="cls-86"><rect class="cls-13" x="459.04" y="94.4" width="111.3" height="9.07"/></g><g class="cls-87"><rect class="cls-15" x="459.04" y="118.74" width="56.35" height="7.64"/></g><g class="cls-88"><rect class="cls-3" x="459.04" y="130.2" width="111.3" height="43.34"/><rect class="cls-34" x="459.04" y="130.2" width="111.3" height="43.34"/></g><g class="cls-2"><g class="cls-2"><g class="cls-89"><g class="cls-90"><path class="cls-23" d="M462.1,191.14h46.13a3.09,3.09,0,0,1,1.17.23,3.16,3.16,0,0,1,1.66,1.66,3.09,3.09,0,0,1,.23,1.17v9.16a3.09,3.09,0,0,1-.23,1.17,3.15,3.15,0,0,1-.67,1,2.78,2.78,0,0,1-1,.66,2.92,2.92,0,0,1-1.17.24H462.1a3.06,3.06,0,0,1-2.82-1.89,2.92,2.92,0,0,1-.24-1.17V194.2a2.92,2.92,0,0,1,.24-1.17,2.78,2.78,0,0,1,.66-1,3,3,0,0,1,2.16-.9Z"/></g></g></g></g><g class="cls-2"><g class="cls-2"><g class="cls-91"><g class="cls-92"><path class="cls-26" d="M462.1,189.63h46.13a2.91,2.91,0,0,1,1.17.23,2.78,2.78,0,0,1,1,.66,3,3,0,0,1,.9,2.16v9.17a3.05,3.05,0,0,1-3.06,3.05H462.1a3.17,3.17,0,0,1-1.17-.23,3.3,3.3,0,0,1-1-.66,3.16,3.16,0,0,1-.9-2.16v-9.17a3.05,3.05,0,0,1,3.06-3.05Z"/></g></g></g></g><g class="cls-2"><line class="cls-81" x1="602.8" y1="142.91" x2="654.38" y2="142.91"/><path class="cls-82" d="M651.61,142.91h7.81m-7.81-7.81,7.81,7.81-7.81,7.81"/></g></svg>